<?xml version="1.0" encoding="UTF-8" standalone="no"?>
<svg
   version="1.1"
   width="1023.7"
   height="204.5"
   viewBox="0 0 1023.7 204.5"
   xml:space="preserve"
   id="svg8"
   xmlns="http://www.w3.org/2000/svg"
   xmlns:svg="http://www.w3.org/2000/svg">
<desc
   id="desc1">Created with Fabric.js 5.2.4</desc>
<defs
   id="defs1" />
<g
   transform="translate(511.85,102.25)"
   id="41c7c5de-849c-4938-8ab5-f365f13c5058">
<rect
   style="visibility:hidden;opacity:1;fill:#ffffff;fill-rule:nonzero;stroke:none;stroke-width:1;stroke-linecap:butt;stroke-linejoin:miter;stroke-miterlimit:4;stroke-dasharray:none;stroke-dashoffset:0"
   vector-effect="non-scaling-stroke"
   x="-540"
   y="-540"
   rx="0"
   ry="0"
   width="1080"
   height="1080"
   id="rect1" />
</g>

<g
   transform="translate(511.85,102.25)"
   id="4f0fbdfb-5b99-4afe-8726-0dd9c247bbd1">
<path
   style="opacity:1;fill:#ffa434;fill-rule:nonzero;stroke:#000000;stroke-width:0;stroke-linecap:butt;stroke-linejoin:miter;stroke-miterlimit:4;stroke-dasharray:none;stroke-dashoffset:0"
   vector-effect="non-scaling-stroke"
   transform="translate(-594.85,-420.85)"
   d="m 122.9,519.5 c 2,-9.6 4,-18.9 5.8,-27.8 1.5,-7.5 3.3,-15.7 5.2,-24.8 l 1.2,-5.5 9.5,-45.7 h 36.2 l 6.4,-30.3 h -37.9 c 0.3,-1.3 0.7,-3.3 1.2,-6 0.5,-2.6 1,-4.9 1.3,-6.7 1.4,-6.9 4,-12.1 7.7,-15.5 3.7,-3.5 8.8,-5.2 15.4,-5.2 3.7,0 7.4,0.4 11,1.3 3.6,0.9 7.1,2.2 10.3,3.8 l 9.5,-32.3 c -2.8,-1.3 -6.1,-2.4 -9.9,-3.3 -3.8,-0.9 -7.7,-1.7 -11.8,-2.2 -4.1,-0.5 -8.3,-0.7 -12.4,-0.7 -6.5,0 -12.8,0.8 -18.8,2.4 -6,1.6 -11.5,4.2 -16.4,7.9 -4.9,3.7 -9.2,8.8 -12.9,15.1 -3.7,6.4 -6.5,14.3 -8.4,23.8 -1.2,6 -2.6,12.5 -4,19.6 l 0.4,-2.1 H 89.4 L 83,415.5 h 22 l -0.3,1.5 c -0.6,2.8 -1.2,5.6 -1.7,8.3 l -0.9,4.1 c -1.4,6.8 -2.7,12.9 -3.8,18.5 l -2.8,13.4 c -2.3,11.1 -4.4,21.2 -6.3,30.2 -1.9,9 -3.8,18.3 -5.8,27.9 h 39.5 z M 235.6,385 l -3.8,9.7 17.7,12.4 c 1,0.7 1.5,1.9 1.3,3.2 l -0.1,0.4 -1.2,5.5 c -0.3,1.4 -1.3,2.4 -2.6,2.4 l -15.6,1 13.4,9.3 c 1,0.7 1.5,1.9 1.3,3.2 l -0.1,0.4 -1.2,5.5 c -0.3,1.4 -1.3,2.4 -2.6,2.4 l -15.6,1.1 13.4,9.3 c 1,0.7 1.5,1.9 1.3,3.2 l -0.1,0.4 -1.2,5.5 c -0.3,1.4 -1.3,2.4 -2.6,2.4 l -15.6,1.1 13.4,9.3 c 1,0.7 1.5,1.9 1.3,3.2 l -0.1,0.4 -1.2,5.5 c -0.3,1.4 -1.3,2.4 -2.6,2.4 l -15.6,1.1 13.4,9.3 c 1,0.7 1.5,1.9 1.3,3.2 l -0.1,0.4 -1.2,5.5 c -0.3,1.4 -1.3,2.4 -2.6,2.4 l -21.9,1.9 -2.7,11.7 h -17.5 l 5.4,-21.5 c 0.3,-1.4 1.3,-2.4 2.6,-2.4 l 15.6,-1.1 -13.4,-9.3 c -1,-0.7 -1.5,-1.9 -1.3,-3.2 l 0.1,-0.4 1.2,-5.5 c 0.3,-1.4 1.3,-2.4 2.6,-2.4 l 15.6,-1.1 -13.4,-9.3 c -1,-0.7 -1.5,-1.9 -1.3,-3.2 l 0.1,-0.4 1.2,-5.5 c 0.3,-1.4 1.3,-2.4 2.6,-2.4 l 15.6,-1.1 -13.4,-9.3 c -1,-0.7 -1.5,-1.9 -1.3,-3.2 l 0.1,-0.4 1.2,-5.5 c 0.3,-1.4 1.3,-2.4 2.6,-2.4 l 15.6,-1.1 -13.4,-9.3 c -1,-0.7 -1.5,-1.9 -1.3,-3.2 l 0.1,-0.4 1.2,-5.5 c 0.3,-1.4 1.3,-2.4 2.6,-2.4 l 15.6,-1.1 -13.4,-9.3 c -1,-0.7 -1.5,-1.9 -1.3,-3.2 l 0.1,-0.4 2.4,-8.7 c 0.1,0.3 19.4,-0.5 19.4,-0.5 z M 249,319.8 c 7.2,0 12.5,2.4 15.9,7.3 3.5,4.9 4.5,10.7 3.1,17.5 -1.6,7.8 -4.8,13.1 -9.7,15.8 -4.9,2.7 -11,4.1 -18.2,4.1 -7.1,0 -12.4,-2.1 -16,-6.4 -3.6,-4.3 -4.6,-10.3 -3,-18.2 1.5,-7.2 4.7,-12.3 9.7,-15.5 5,-3 11,-4.6 18.2,-4.6 z m 51.3,171.9 c -1.9,9 -3.8,18.2 -5.7,27.8 H 255 c 2,-9.6 4,-18.9 5.8,-27.9 1.9,-9 4,-19.1 6.4,-30.2 l 15.4,-74.5 c 2.4,-10.9 4.7,-21.7 6.9,-32.4 2.2,-10.7 4.4,-21.4 6.6,-32.1 l 40.2,-3.5 c -2.2,10.6 -4.5,21.4 -6.8,32.6 -2.3,11.2 -4.8,22.9 -7.3,35.3 l -15.5,74.5 c -2.5,11.3 -4.6,21.4 -6.4,30.4 z m 104.4,-110 c 12.7,0 23.2,2.2 31.4,6.5 8.2,4.3 13.9,10.4 17.1,18.4 3.2,7.9 3.6,17.4 1.2,28.3 -0.9,4.5 -1.8,9 -2.8,13.6 -1,4.6 -2,9.4 -3,14.5 l -2.4,11.3 c -1.4,6.7 -2.9,13.8 -4.4,21.2 -1.5,7.4 -3.2,15.5 -5.1,24.1 h -34.2 l 1.7,-17.9 h -3 c -3.3,4.8 -6.9,8.7 -10.8,11.8 -3.9,3.1 -8.2,5.4 -12.8,7 -4.6,1.6 -9.5,2.4 -14.8,2.4 -8.4,0 -15.4,-2.1 -21.1,-6.3 -5.6,-4.2 -9.6,-9.7 -11.8,-16.6 -2.2,-6.9 -2.4,-14.4 -0.7,-22.6 1.3,-6.3 3.5,-11.5 6.4,-15.7 3,-4.2 6.5,-7.7 10.7,-10.4 4.2,-2.7 8.8,-4.8 13.9,-6.4 5.1,-1.6 10.3,-2.8 15.8,-3.6 l 41.4,-6.6 c 0.9,-4 0.6,-7.6 -1,-10.6 -1.5,-3 -4.3,-5.3 -8.3,-7 -4,-1.7 -9,-2.5 -15.2,-2.5 -3.2,0 -6.6,0.2 -10.1,0.7 -3.6,0.5 -7.3,1.2 -11.2,2.2 -3.9,0.9 -7.9,2.1 -12,3.5 -4.1,1.4 -8.3,3 -12.6,4.9 l 6.2,-35.2 c 3.2,-1.1 6.8,-2.1 10.9,-3.2 4.1,-1 8.3,-2 12.8,-2.9 4.5,-0.9 9.1,-1.6 13.8,-2.2 4.8,-0.5 9.5,-0.7 14,-0.7 z m 7.9,71.1 c -1.2,0.9 -2.7,1.8 -4.5,2.6 -1.8,0.9 -4.2,1.7 -7.3,2.6 -3.1,0.9 -7.3,1.9 -12.6,3 -3.4,0.8 -6.6,1.7 -9.4,2.8 -2.8,1.1 -5.2,2.6 -7,4.6 -1.9,2 -3.1,4.5 -3.7,7.7 -0.9,4.9 0,8.8 2.5,11.5 2.6,2.7 6,4.1 10.5,4.1 3.2,0 6.4,-0.7 9.6,-2.1 3.2,-1.4 6.3,-3.4 9.3,-6 3,-2.6 5.7,-5.7 8.1,-9.3 0,0 4.5,-21.5 4.5,-21.5 z m 192.5,-47.2 c -1.4,-6.7 -4.2,-12.1 -8.5,-16.1 -5.5,-5.2 -13.2,-7.8 -23.1,-7.8 -6.1,0 -11.9,1.1 -17.5,3.2 -5.6,2.2 -10.8,5.1 -15.5,8.8 -4.7,3.7 -8.7,7.9 -12,12.4 h -3.3 l 2.8,-22.9 -33.4,2 c -2.3,11.2 -4.5,22 -6.8,32.5 -2.2,10.4 -4.3,20.5 -6.2,30.2 l -2.8,13.4 c -2.4,11.1 -4.5,21.2 -6.4,30.2 -1.9,9 -3.8,18.3 -5.8,27.9 h 39.6 c 1.9,-9.6 3.8,-18.8 5.7,-27.7 1.9,-8.9 3.8,-18.3 6,-28.4 l 5.7,-27.8 c 2.8,-3.3 5.7,-6.3 8.5,-8.9 2.9,-2.6 5.9,-4.7 9,-6.2 3.1,-1.5 6.5,-2.3 10,-2.3 6.2,0 10.1,2.4 11.8,7.3 1.7,4.9 1.7,11.4 0.1,19.4 l -3.8,18.6 c -2.1,10 -4.1,19.5 -5.8,28.2 -1.8,8.8 -3.7,18 -5.7,27.7 h 39.5 c 2,-9.6 4,-18.9 5.9,-27.9 1.9,-9 4,-19.1 6.3,-30.2 1.1,-5.2 2.1,-10.2 3.1,-15.1 1,-4.8 1.9,-9.1 2.7,-12.9 l -0.2,0.9 0.3,-0.3 c 1.9,-2.1 3.8,-4 5.7,-5.8 l 1.5,-1.3 c 2.9,-2.6 5.9,-4.7 9.1,-6.3 3.1,-1.6 6.5,-2.4 10,-2.4 6.2,0 10.1,2.4 11.8,7.3 1.7,4.9 1.7,11.4 0.1,19.4 l -3.8,18.6 c -2,10.1 -4,19.6 -5.8,28.3 -1.8,8.7 -3.7,18 -5.8,27.6 h 39.6 c 1.9,-9.6 3.8,-18.9 5.7,-27.8 1.9,-9 4,-19 6.4,-30.3 1.1,-5.2 2.1,-10.2 3.1,-15.1 1,-4.8 1.9,-9.1 2.7,-12.9 3.4,-15.7 2.3,-28.2 -3.2,-37.7 -5.5,-9.4 -15,-14.1 -28.5,-14.1 -6.1,0 -12,1.1 -17.6,3.3 -5.6,2.2 -10.9,5.2 -15.7,8.9 -4.8,3.8 -8.9,8 -12.4,12.8 h -2.9 z m 171.1,-23.9 c 13.9,0 25.2,2.6 33.9,7.7 8.7,5.1 14.7,12.3 17.7,21.5 3.1,9.2 3.1,20 0.1,32.3 -0.7,3 -1.4,5.7 -2.2,8.3 -0.6,1.9 -1.2,3.8 -1.8,5.7 l -0.6,1.8 h -81.1 v 0.5 c -0.2,5.1 0.6,9.6 2.2,13.4 2.5,5.7 6.7,10 12.5,12.8 5.8,2.8 13,4.2 21.4,4.2 3.7,0 7.8,-0.3 12.4,-1 4.5,-0.7 9.1,-1.7 13.6,-3.1 4.5,-1.4 8.6,-3.2 12.4,-5.3 l -5.3,34.2 c -2.4,1.4 -5.6,2.8 -9.8,4 -4.1,1.3 -8.9,2.3 -14.4,3.1 -5.4,0.8 -11.3,1.2 -17.5,1.2 -15.9,0 -29.1,-3.1 -39.8,-9.3 -10.6,-6.2 -18.1,-15.1 -22.5,-26.6 -4.4,-11.5 -5,-25.1 -1.8,-40.9 2.6,-13 7.1,-24.3 13.5,-34 6.4,-9.7 14.3,-17.2 24,-22.5 9.8,-5.4 20.8,-8 33.1,-8 z M 777,410 c -4.5,0 -8.9,1.2 -13.2,3.6 -4.3,2.4 -8.1,6.2 -11.5,11.3 -2,3.1 -3.7,6.7 -5.2,10.8 l -0.4,1.2 47.8,-1 0.2,-1.2 c 0.7,-5.9 -0.2,-11.2 -2.6,-15.9 C 789.2,413 784.2,410 777,410 Z m 99.8,109.5 c 1.9,-9.6 3.8,-18.8 5.7,-27.6 1.9,-8.8 3.8,-18.3 6,-28.4 l 5.7,-27.8 c 2.8,-3.3 5.7,-6.3 8.7,-8.9 3,-2.6 6,-4.7 9.3,-6.2 3.2,-1.5 6.7,-2.3 10.5,-2.3 7,0 11.4,2.4 13.2,7.3 1.9,4.9 1.9,11.4 0.1,19.4 l -3.8,18.6 c -2,10 -3.9,19.5 -5.8,28.2 -1.8,8.8 -3.7,18 -5.8,27.7 h 39.6 c 2,-9.6 4,-18.9 5.9,-27.9 1.9,-9 4,-19.1 6.2,-30.2 1.1,-5.2 2.2,-10.2 3.2,-15.1 1,-4.8 1.9,-9.1 2.7,-12.9 3.3,-15.7 2.1,-28.2 -3.4,-37.7 -5.6,-9.4 -15.5,-14.1 -29.8,-14.1 -6.3,0 -12.3,1.1 -18.1,3.2 -5.8,2.2 -11.1,5.1 -15.8,8.8 -4.8,3.7 -8.8,7.9 -12,12.4 h -3.3 l 2.8,-22.9 -33.4,2 c -2.3,11.2 -4.5,22.1 -6.8,32.5 -2.2,10.5 -4.3,20.5 -6.2,30.1 l -2.8,13.4 c -2.3,11 -4.4,21.1 -6.3,30.1 -1.9,9.1 -3.9,18.4 -5.9,28 z m 175.1,3.6 c 3.2,0 6.6,-0.3 10.3,-0.9 3.7,-0.6 7.2,-1.3 10.4,-2.3 3.2,-0.9 5.8,-2 7.6,-3.3 l 4.2,-32.9 c -3.4,2.4 -6.9,4.1 -10.3,5.1 -3.4,1 -6.5,1.5 -9.3,1.5 -6.4,0 -10.8,-2.2 -13.2,-6.7 -2.4,-4.5 -2.6,-11 -0.7,-19.6 l 10,-48.4 h 39.4 l 6.4,-30.3 h -39.4 l 0.3,-1.3 c 0.6,-2.7 1.1,-5.3 1.6,-7.9 l 0.5,-2.5 c 1.4,-6.6 2.7,-13 4,-19.2 1.3,-6.2 2.7,-12.8 4.1,-19.8 l -40.5,7.1 c -1.9,8.9 -3.6,17.5 -5.4,25.8 -1,5 -2.2,10.3 -3.4,16 l -0.4,1.7 h -21.4 l -6.4,30.3 h 21.4 l -0.2,0.8 -0.5,2.3 c -1.4,6.9 -2.8,13.4 -4,19.5 -1.3,6.1 -2.5,11.9 -3.6,17.5 -1.2,5.6 -2.3,11.3 -3.6,17.1 -2.4,11.4 -2.1,20.8 0.8,28.2 2.9,7.4 7.9,13 15,16.6 7.4,3.8 16,5.6 26.3,5.6 z"
   stroke-linecap="round"
   id="path1" />
</g>




</svg>
